<svg width="8" height="13" viewBox="0 0 8 13" fill="none" xmlns="http://www.w3.org/2000/svg">
<mask id="path-1-inside-1_1_8378" fill="white">
<path d="M1.26642 12.7783C1.115 12.7764 0.96981 12.7203 0.859362 12.6211C0.752079 12.5174 0.691895 12.3774 0.691895 12.2314C0.691895 12.0855 0.752079 11.9455 0.859362 11.8418L6.17259 6.76256L0.859362 1.68333C0.768258 1.57708 0.7217 1.44218 0.728745 1.30488C0.735789 1.16758 0.795932 1.0377 0.897475 0.940503C0.999017 0.843302 1.1347 0.785731 1.27813 0.778987C1.42156 0.772244 1.56248 0.816811 1.67349 0.90402L7.38664 6.3729C7.49392 6.47658 7.5541 6.61662 7.5541 6.76256C7.5541 6.90849 7.49392 7.04853 7.38664 7.15221L1.67349 12.6211C1.56304 12.7203 1.41785 12.7764 1.26642 12.7783Z"/>
</mask>
<path d="M1.26642 12.7783C1.115 12.7764 0.96981 12.7203 0.859362 12.6211C0.752079 12.5174 0.691895 12.3774 0.691895 12.2314C0.691895 12.0855 0.752079 11.9455 0.859362 11.8418L6.17259 6.76256L0.859362 1.68333C0.768258 1.57708 0.7217 1.44218 0.728745 1.30488C0.735789 1.16758 0.795932 1.0377 0.897475 0.940503C0.999017 0.843302 1.1347 0.785731 1.27813 0.778987C1.42156 0.772244 1.56248 0.816811 1.67349 0.90402L7.38664 6.3729C7.49392 6.47658 7.5541 6.61662 7.5541 6.76256C7.5541 6.90849 7.49392 7.04853 7.38664 7.15221L1.67349 12.6211C1.56304 12.7203 1.41785 12.7764 1.26642 12.7783Z" fill="url(#paint0_linear_1_8378)"/>
<path d="M1.26642 12.7783L1.23391 15.2781L1.26642 15.2785L1.29893 15.2781L1.26642 12.7783ZM0.859362 12.6211L-0.87802 14.4187L-0.845073 14.4506L-0.810982 14.4812L0.859362 12.6211ZM0.691895 12.2314H3.19189H0.691895ZM0.859362 11.8418L-0.868188 10.0346L-0.87802 10.0441L0.859362 11.8418ZM6.17259 6.76256L7.90012 8.56967L9.79049 6.76256L7.90012 4.95544L6.17259 6.76256ZM0.859362 1.68333L-1.03856 3.31057L-0.957821 3.40474L-0.868162 3.49045L0.859362 1.68333ZM1.67349 0.90402L3.40222 -0.901934L3.31399 -0.986396L3.21794 -1.06185L1.67349 0.90402ZM7.38664 6.3729L9.12404 4.57524L9.11537 4.56694L7.38664 6.3729ZM7.38664 7.15221L9.11539 8.95819L9.12402 8.94985L7.38664 7.15221ZM1.67349 12.6211L3.34383 14.4812L3.37346 14.4546L3.40222 14.427L1.67349 12.6211ZM1.29893 10.2785C1.73948 10.2843 2.17979 10.4468 2.52971 10.761L-0.810982 14.4812C-0.240174 14.9938 0.490514 15.2684 1.23391 15.2781L1.29893 10.2785ZM2.59674 10.8235C2.96456 11.1789 3.19189 11.6826 3.19189 12.2314H-1.80811C-1.80811 13.0721 -1.46041 13.8559 -0.87802 14.4187L2.59674 10.8235ZM3.19189 12.2314C3.19189 12.7802 2.96456 13.2839 2.59674 13.6394L-0.87802 10.0441C-1.46041 10.607 -1.80811 11.3908 -1.80811 12.2314H3.19189ZM2.58689 13.6489L7.90012 8.56967L4.44507 4.95544L-0.868162 10.0347L2.58689 13.6489ZM7.90012 4.95544L2.58689 -0.123779L-0.868162 3.49045L4.44507 8.56967L7.90012 4.95544ZM2.75728 0.0560952C3.07505 0.426723 3.25192 0.917246 3.22546 1.43298L-1.76797 1.17678C-1.80852 1.96711 -1.53853 2.72743 -1.03856 3.31057L2.75728 0.0560952ZM3.22546 1.43298C3.19903 1.94815 2.97376 2.41377 2.62621 2.74646L-0.831263 -0.86545C-1.3819 -0.338359 -1.72745 0.387019 -1.76797 1.17678L3.22546 1.43298ZM2.62621 2.74646C2.28153 3.0764 1.84082 3.25529 1.39553 3.27623L1.16072 -1.71825C0.428576 -1.68383 -0.283492 -1.3898 -0.831263 -0.86545L2.62621 2.74646ZM1.39553 3.27623C0.950486 3.29715 0.499023 3.16057 0.129031 2.86989L3.21794 -1.06185C2.62594 -1.52695 1.89263 -1.75266 1.16072 -1.71825L1.39553 3.27623ZM-0.0552521 2.70997L5.6579 8.17885L9.11537 4.56694L3.40222 -0.901934L-0.0552521 2.70997ZM5.64925 8.17054C5.28143 7.81504 5.0541 7.31133 5.0541 6.76256H10.0541C10.0541 5.92191 9.70641 5.13813 9.12402 4.57526L5.64925 8.17054ZM5.0541 6.76256C5.0541 6.21378 5.28143 5.71007 5.64925 5.35457L9.12402 8.94985C9.70641 8.38698 10.0541 7.6032 10.0541 6.76256H5.0541ZM5.6579 5.34626L-0.0552521 10.8151L3.40222 14.427L9.11537 8.95817L5.6579 5.34626ZM0.00314158 10.761C0.353054 10.4468 0.793366 10.2843 1.23391 10.2785L1.29893 15.2781C2.04233 15.2684 2.77302 14.9938 3.34383 14.4812L0.00314158 10.761Z" fill="url(#paint1_linear_1_8378)" mask="url(#path-1-inside-1_1_8378)"/>
<defs>
<linearGradient id="paint0_linear_1_8378" x1="0.438591" y1="-13.3645" x2="13.2175" y2="-11.6714" gradientUnits="userSpaceOnUse">
<stop stop-color="#FFE986" stop-opacity="0.88"/>
<stop offset="0.670219" stop-color="#BC7E20"/>
<stop offset="1" stop-color="#A74D01"/>
</linearGradient>
<linearGradient id="paint1_linear_1_8378" x1="0.438591" y1="-13.3645" x2="13.2175" y2="-11.6714" gradientUnits="userSpaceOnUse">
<stop stop-color="#FFE986" stop-opacity="0.88"/>
<stop offset="0.670219" stop-color="#BC7E20"/>
<stop offset="1" stop-color="#A74D01"/>
</linearGradient>
</defs>
</svg>
