<svg width="31" height="32" viewBox="0 0 31 32" fill="none" xmlns="http://www.w3.org/2000/svg">
<path d="M2.27051 3.37195H7.08119L10.3044 19.4757C10.4143 20.0294 10.7156 20.5268 11.1553 20.8808C11.595 21.2348 12.1453 21.4228 12.7097 21.412H24.3997C24.9641 21.4228 25.5143 21.2348 25.9541 20.8808C26.3938 20.5268 26.695 20.0294 26.805 19.4757L28.7293 9.38531H8.28386M13.0946 27.4254C13.0946 28.0896 12.5561 28.6281 11.8919 28.6281C11.2277 28.6281 10.6892 28.0896 10.6892 27.4254C10.6892 26.7612 11.2277 26.2227 11.8919 26.2227C12.5561 26.2227 13.0946 26.7612 13.0946 27.4254ZM26.3239 27.4254C26.3239 28.0896 25.7855 28.6281 25.1213 28.6281C24.457 28.6281 23.9186 28.0896 23.9186 27.4254C23.9186 26.7612 24.457 26.2227 25.1213 26.2227C25.7855 26.2227 26.3239 26.7612 26.3239 27.4254Z" stroke="url(#paint0_linear_1_20361)" stroke-width="2" stroke-linecap="round" stroke-linejoin="round"/>
<defs>
<linearGradient id="paint0_linear_1_20361" x1="1.29384" y1="-26.3942" x2="48.6413" y2="-14.9017" gradientUnits="userSpaceOnUse">
<stop stop-color="#FFE986" stop-opacity="0.88"/>
<stop offset="0.670219" stop-color="#BC7E20"/>
<stop offset="1" stop-color="#A74D01"/>
</linearGradient>
</defs>
</svg>
