<svg width="41" height="41" viewBox="0 0 41 41" fill="none" xmlns="http://www.w3.org/2000/svg">
<mask id="path-1-inside-1_1_10863" fill="white">
<path d="M33.0752 23.9254C32.4554 24.2985 31.7322 24.3663 31.1812 24.061C30.4925 23.6541 30.0792 22.7384 30.0792 21.4835V17.6512C30.0792 15.8198 29.356 14.4971 28.1163 14.1579C26.0156 13.5475 24.4315 16.0911 23.8461 17.0407L20.1269 22.9079V15.6841C20.0924 14.0223 19.5415 13.0388 18.5083 12.7335C17.8196 12.53 16.7865 12.6318 15.7878 14.124L7.48845 27.2151C6.38646 25.1463 5.80103 22.8401 5.80103 20.5C5.80103 12.5979 12.2408 6.18798 20.1269 6.18798C28.013 6.18798 34.4527 12.5979 34.4527 20.5V20.5339V20.5678C34.5216 22.094 34.0395 23.3149 33.0752 23.9254ZM37.621 20.5V20.4661V20.4322C37.5865 10.8343 29.7348 3 20.1269 3C10.4845 3 2.63281 10.8343 2.63281 20.5C2.63281 30.1318 10.4845 38 20.1269 38C24.5693 38 28.7706 36.3382 32.0077 33.3198C32.662 32.7093 32.6964 31.7258 32.0766 31.0814C31.4911 30.437 30.4925 30.4031 29.8382 30.9796C29.8382 30.9796 29.8382 30.9796 29.8037 31.0136C27.1865 33.4554 23.6739 34.8459 20.058 34.8459C15.8222 34.8459 12.0342 33.0145 9.41693 30.0979L16.8898 18.2955V23.7558C16.8898 26.3672 17.9229 27.2151 18.7838 27.4525C19.6448 27.6899 20.9534 27.5204 22.3653 25.3159L26.4633 18.7703C26.6011 18.5669 26.7044 18.3634 26.8421 18.2277V21.5514C26.8421 23.9932 27.8408 25.9603 29.5627 26.9099C31.1123 27.7917 33.0753 27.6899 34.6938 26.7064C36.6912 25.4176 37.7587 23.1793 37.621 20.5Z"/>
</mask>
<path d="M33.0752 23.9254C32.4554 24.2985 31.7322 24.3663 31.1812 24.061C30.4925 23.6541 30.0792 22.7384 30.0792 21.4835V17.6512C30.0792 15.8198 29.356 14.4971 28.1163 14.1579C26.0156 13.5475 24.4315 16.0911 23.8461 17.0407L20.1269 22.9079V15.6841C20.0924 14.0223 19.5415 13.0388 18.5083 12.7335C17.8196 12.53 16.7865 12.6318 15.7878 14.124L7.48845 27.2151C6.38646 25.1463 5.80103 22.8401 5.80103 20.5C5.80103 12.5979 12.2408 6.18798 20.1269 6.18798C28.013 6.18798 34.4527 12.5979 34.4527 20.5V20.5339V20.5678C34.5216 22.094 34.0395 23.3149 33.0752 23.9254ZM37.621 20.5V20.4661V20.4322C37.5865 10.8343 29.7348 3 20.1269 3C10.4845 3 2.63281 10.8343 2.63281 20.5C2.63281 30.1318 10.4845 38 20.1269 38C24.5693 38 28.7706 36.3382 32.0077 33.3198C32.662 32.7093 32.6964 31.7258 32.0766 31.0814C31.4911 30.437 30.4925 30.4031 29.8382 30.9796C29.8382 30.9796 29.8382 30.9796 29.8037 31.0136C27.1865 33.4554 23.6739 34.8459 20.058 34.8459C15.8222 34.8459 12.0342 33.0145 9.41693 30.0979L16.8898 18.2955V23.7558C16.8898 26.3672 17.9229 27.2151 18.7838 27.4525C19.6448 27.6899 20.9534 27.5204 22.3653 25.3159L26.4633 18.7703C26.6011 18.5669 26.7044 18.3634 26.8421 18.2277V21.5514C26.8421 23.9932 27.8408 25.9603 29.5627 26.9099C31.1123 27.7917 33.0753 27.6899 34.6938 26.7064C36.6912 25.4176 37.7587 23.1793 37.621 20.5Z" fill="url(#paint0_linear_1_10863)"/>
<path d="M33.0752 23.9254C32.4554 24.2985 31.7322 24.3663 31.1812 24.061C30.4925 23.6541 30.0792 22.7384 30.0792 21.4835V17.6512C30.0792 15.8198 29.356 14.4971 28.1163 14.1579C26.0156 13.5475 24.4315 16.0911 23.8461 17.0407L20.1269 22.9079V15.6841C20.0924 14.0223 19.5415 13.0388 18.5083 12.7335C17.8196 12.53 16.7865 12.6318 15.7878 14.124L7.48845 27.2151C6.38646 25.1463 5.80103 22.8401 5.80103 20.5C5.80103 12.5979 12.2408 6.18798 20.1269 6.18798C28.013 6.18798 34.4527 12.5979 34.4527 20.5V20.5339V20.5678C34.5216 22.094 34.0395 23.3149 33.0752 23.9254ZM37.621 20.5V20.4661V20.4322C37.5865 10.8343 29.7348 3 20.1269 3C10.4845 3 2.63281 10.8343 2.63281 20.5C2.63281 30.1318 10.4845 38 20.1269 38C24.5693 38 28.7706 36.3382 32.0077 33.3198C32.662 32.7093 32.6964 31.7258 32.0766 31.0814C31.4911 30.437 30.4925 30.4031 29.8382 30.9796C29.8382 30.9796 29.8382 30.9796 29.8037 31.0136C27.1865 33.4554 23.6739 34.8459 20.058 34.8459C15.8222 34.8459 12.0342 33.0145 9.41693 30.0979L16.8898 18.2955V23.7558C16.8898 26.3672 17.9229 27.2151 18.7838 27.4525C19.6448 27.6899 20.9534 27.5204 22.3653 25.3159L26.4633 18.7703C26.6011 18.5669 26.7044 18.3634 26.8421 18.2277V21.5514C26.8421 23.9932 27.8408 25.9603 29.5627 26.9099C31.1123 27.7917 33.0753 27.6899 34.6938 26.7064C36.6912 25.4176 37.7587 23.1793 37.621 20.5Z" fill="#D1D2D7" fill-opacity="0.3"/>
<path d="M33.0752 23.9254L43.3883 41.0613L43.5823 40.9446L43.7735 40.8235L33.0752 23.9254ZM31.1812 24.061L21.0068 41.2797L21.2463 41.4212L21.4896 41.556L31.1812 24.061ZM28.1163 14.1579L22.5351 33.3634L22.6867 33.4075L22.8389 33.4491L28.1163 14.1579ZM23.8461 17.0407L40.7382 27.7485L40.8052 27.6428L40.8708 27.5364L23.8461 17.0407ZM20.1269 22.9079H0.126881V91.815L37.019 33.6157L20.1269 22.9079ZM20.1269 15.6841H40.1269V15.4769L40.1226 15.2697L20.1269 15.6841ZM18.5083 12.7335L12.8415 31.9139L18.5083 12.7335ZM15.7878 14.124L-0.83341 3.0004L-0.971131 3.20618L-1.10371 3.41532L15.7878 14.124ZM7.48845 27.2151L-10.1635 36.6178L5.9866 66.9368L24.38 37.9238L7.48845 27.2151ZM34.4527 20.5678H14.4527V21.0189L14.4731 21.4695L34.4527 20.5678ZM37.621 20.5H17.621V21.0138L17.6473 21.5269L37.621 20.5ZM37.621 20.4322H57.621V20.3963L57.6208 20.3604L37.621 20.4322ZM32.0077 33.3198L45.6471 47.9473L45.6514 47.9433L32.0077 33.3198ZM32.0766 31.0814L17.2736 44.5302L17.4653 44.7413L17.663 44.9467L32.0766 31.0814ZM29.8382 30.9796L16.6158 15.974L16.1997 16.3407L15.8045 16.7298L29.8382 30.9796ZM29.8037 31.0136L43.4474 45.6371L43.6449 45.4529L43.8374 45.2634L29.8037 31.0136ZM9.41693 30.0979L-7.48071 19.3988L-15.5787 32.1885L-5.46867 43.4552L9.41693 30.0979ZM16.8898 18.2955H36.8898V-50.6781L-0.00784993 7.59649L16.8898 18.2955ZM22.3653 25.3159L39.207 36.1028L39.2625 36.0162L39.317 35.929L22.3653 25.3159ZM26.4633 18.7703L9.90122 7.55887L9.70105 7.85458L9.51156 8.15724L26.4633 18.7703ZM26.8421 18.2277H46.8421V-29.5394L12.8085 3.9779L26.8421 18.2277ZM29.5627 26.9099L39.4538 9.52696L39.3379 9.46105L39.2213 9.3967L29.5627 26.9099ZM34.6938 26.7064L45.0798 43.7982L45.3104 43.6581L45.5372 43.5118L34.6938 26.7064ZM22.7621 6.78946C26.613 4.47187 33.6477 2.56361 40.8728 6.56611L21.4896 41.556C29.8167 46.1689 38.2978 44.125 43.3883 41.0613L22.7621 6.78946ZM41.3556 6.84243C49.3629 11.5739 50.0792 19.3346 50.0792 21.4835H10.0792C10.0792 26.1421 11.622 35.7342 21.0068 41.2797L41.3556 6.84243ZM50.0792 21.4835V17.6512H10.0792V21.4835H50.0792ZM50.0792 17.6512C50.0792 12.04 47.5084 -1.27195 33.3937 -5.13323L22.8389 33.4491C17.5594 32.0048 13.9894 28.4822 12.0958 25.0872C10.3586 21.9724 10.0792 19.1865 10.0792 17.6512H50.0792ZM33.6975 -5.04753C22.7137 -8.23949 14.6789 -2.30637 11.8171 0.346192C8.84714 3.09909 7.04993 6.1743 6.82137 6.54503L40.8708 27.5364C41.2277 26.9575 40.5153 28.2861 39.0088 29.6824C37.6106 30.9784 31.4182 35.9449 22.5351 33.3634L33.6975 -5.04753ZM6.95399 6.3329L3.23478 12.2002L37.019 33.6157L40.7382 27.7485L6.95399 6.3329ZM40.1269 22.9079V15.6841H0.126881V22.9079H40.1269ZM40.1226 15.2697C40.067 12.5859 39.5942 8.37331 37.2055 4.04195C34.494 -0.87499 29.938 -4.74423 24.1752 -6.44685L12.8415 31.9139C8.1118 30.5165 4.34785 27.2917 2.17868 23.3582C0.332448 20.0104 0.152353 17.1205 0.131174 16.0985L40.1226 15.2697ZM24.1752 -6.44685C20.2449 -7.60806 15.1465 -7.88767 9.8758 -5.79233C4.73738 -3.74957 1.30516 -0.195109 -0.83341 3.0004L32.409 25.2477C31.2691 26.9509 28.8528 29.7084 24.6528 31.3781C20.3205 33.1004 16.0831 32.8716 12.8415 31.9139L24.1752 -6.44685ZM-1.10371 3.41532L-9.40307 16.5064L24.38 37.9238L32.6793 24.8328L-1.10371 3.41532ZM25.1404 17.8125C25.553 18.5872 25.801 19.5037 25.801 20.5H-14.199C-14.199 26.1765 -12.7801 31.7055 -10.1635 36.6178L25.1404 17.8125ZM25.801 20.5C25.801 23.6833 23.2467 26.188 20.1269 26.188V-13.812C1.23482 -13.812 -14.199 1.51248 -14.199 20.5H25.801ZM20.1269 26.188C17.007 26.188 14.4527 23.6833 14.4527 20.5H54.4527C54.4527 1.51248 39.0189 -13.812 20.1269 -13.812V26.188ZM14.4527 20.5V20.5339H54.4527V20.5H14.4527ZM14.4527 20.5339V20.5678H54.4527V20.5339H14.4527ZM14.4731 21.4695C14.3608 18.9821 15.0132 11.6893 22.377 7.02726L43.7735 40.8235C53.0658 34.9405 54.6824 25.2059 54.4324 19.6662L14.4731 21.4695ZM57.621 20.5V20.4661H17.621V20.5H57.621ZM57.621 20.4661V20.4322H17.621V20.4661H57.621ZM57.6208 20.3604C57.5469 -0.246501 40.7611 -17 20.1269 -17V23C18.7086 23 17.6261 21.9151 17.6211 20.5039L57.6208 20.3604ZM20.1269 -17C-0.552704 -17 -17.3672 -0.219899 -17.3672 20.5H22.6328C22.6328 21.8885 21.5217 23 20.1269 23V-17ZM-17.3672 20.5C-17.3672 41.1608 -0.577927 58 20.1269 58V18C21.5469 18 22.6328 19.1028 22.6328 20.5H-17.3672ZM20.1269 58C29.6434 58 38.7158 54.4104 45.6471 47.9473L18.3683 18.6922C18.5749 18.4995 18.851 18.3168 19.1821 18.1863C19.5138 18.0554 19.8424 18 20.1269 18V58ZM45.6514 47.9433C54.3291 39.8471 54.9828 26.0445 46.4902 17.2161L17.663 44.9467C10.4101 37.407 10.9949 25.5715 18.364 18.6962L45.6514 47.9433ZM46.8796 17.6326C38.6062 8.52611 25.0839 8.51226 16.6158 15.974L43.0606 45.9853C35.9011 52.2939 24.3761 52.3479 17.2736 44.5302L46.8796 17.6326ZM29.8382 30.9796C15.8038 16.7305 15.8042 16.7302 15.8045 16.7298C15.8045 16.7299 15.8045 16.7298 15.8045 16.7298C15.8045 16.7298 15.8045 16.7298 15.8045 16.7298C15.8045 16.7298 15.8045 16.7298 15.8045 16.7298C15.8045 16.7298 15.8045 16.7298 15.8045 16.7298C15.8045 16.7298 15.8045 16.7298 15.8045 16.7298C15.8045 16.7298 15.8045 16.7298 15.8045 16.7298C15.8045 16.7298 15.8045 16.7298 15.8045 16.7298C15.8044 16.7299 15.8046 16.7297 15.8045 16.7298C15.8045 16.7299 15.8045 16.7298 15.8045 16.7298C15.8045 16.7298 15.8045 16.7298 15.8045 16.7298C15.8045 16.7298 15.8045 16.7298 15.8045 16.7298C15.8045 16.7299 15.8045 16.7298 15.8045 16.7299C15.8045 16.7299 15.8045 16.7298 15.8045 16.7299C15.8045 16.7299 15.8045 16.7299 15.8045 16.7299C15.8044 16.7299 15.8045 16.7299 15.8045 16.7299C15.8043 16.7301 15.8044 16.73 15.804 16.7304C15.8036 16.7308 15.8034 16.7309 15.8027 16.7316C15.7897 16.7445 15.8137 16.7208 15.8002 16.7341C15.7858 16.7483 15.7974 16.7369 15.7701 16.7638L43.8374 45.2634C43.8608 45.2403 43.857 45.2441 43.8675 45.2337C43.8708 45.2305 43.8696 45.2316 43.8713 45.23C43.8715 45.2297 43.8711 45.2301 43.8713 45.2299C43.8714 45.2298 43.8713 45.2299 43.8714 45.2299C43.8719 45.2293 43.8709 45.2304 43.8714 45.2298C43.8715 45.2298 43.8714 45.2299 43.8714 45.2298C43.8714 45.2298 43.8714 45.2298 43.8714 45.2298C43.8714 45.2298 43.8714 45.2298 43.8714 45.2298C43.8715 45.2298 43.8715 45.2298 43.8715 45.2298C43.8715 45.2298 43.8715 45.2298 43.8715 45.2298C43.8715 45.2297 43.8715 45.2298 43.8715 45.2297C43.8715 45.2297 43.8716 45.2297 43.8716 45.2297C43.8728 45.2285 43.8706 45.2307 43.8717 45.2295C43.8718 45.2295 43.8718 45.2295 43.8718 45.2295C43.8718 45.2295 43.8718 45.2295 43.8718 45.2295C43.8718 45.2295 43.8718 45.2294 43.8718 45.2295C43.8718 45.2295 43.8718 45.2295 43.8718 45.2295C43.8718 45.2295 43.8718 45.2295 43.8718 45.2295C43.8718 45.2295 43.8718 45.2294 43.8719 45.2294C43.8721 45.2291 43.8725 45.2287 29.8382 30.9796ZM16.16 16.39C17.2482 15.3747 18.6125 14.8459 20.058 14.8459V54.8459C28.7353 54.8459 37.1248 51.5362 43.4474 45.6371L16.16 16.39ZM20.058 14.8459C21.7364 14.8459 23.2855 15.6071 24.3025 16.7405L-5.46867 43.4552C0.782835 50.422 9.90813 54.8459 20.058 54.8459V14.8459ZM26.3146 40.7969L33.7874 28.9946L-0.00784993 7.59649L-7.48071 19.3988L26.3146 40.7969ZM-3.11021 18.2955V23.7558H36.8898V18.2955H-3.11021ZM-3.11021 23.7558C-3.11021 27.5262 -2.38318 32.5377 0.699906 37.3244C4.02445 42.4859 8.8495 45.4596 13.4672 46.7329L24.1004 8.17212C27.8572 9.20807 31.7353 11.6391 34.328 15.6645C36.6793 19.315 36.8898 22.5968 36.8898 23.7558H-3.11021ZM13.4672 46.7329C17.8837 47.9508 23.4112 47.9772 28.899 45.3892C33.9626 43.0011 37.2066 39.2261 39.207 36.1028L5.52358 14.529C6.11211 13.6101 7.99578 11.0221 11.8369 9.21063C16.1021 7.19913 20.5449 7.19168 24.1004 8.17212L13.4672 46.7329ZM39.317 35.929L43.4151 29.3835L9.51156 8.15724L5.41354 14.7028L39.317 35.929ZM43.0254 29.9818C43.2642 29.6291 43.448 29.3357 43.5096 29.2374C43.6302 29.0448 43.5219 29.2183 43.4509 29.3281C43.3489 29.486 43.0848 29.8902 42.7055 30.3926C42.3221 30.9003 41.7154 31.6506 40.8758 32.4775L12.8085 3.9779C11.9 4.87265 11.2287 5.6993 10.7829 6.28964C10.3412 6.87473 10.0168 7.36791 9.8545 7.61911C9.72332 7.82212 9.55466 8.0932 9.61292 8.0002C9.61597 7.99534 9.64759 7.94483 9.69306 7.87414C9.73993 7.80127 9.8111 7.69201 9.90122 7.55887L43.0254 29.9818ZM6.84213 18.2277V21.5514H46.8421V18.2277H6.84213ZM6.84213 21.5514C6.84213 29.2041 10.1716 39.0556 19.9041 44.4231L39.2213 9.3967C45.51 12.865 46.8421 18.7823 46.8421 21.5514H6.84213ZM19.6716 44.2928C28.2834 49.1931 38.0319 48.081 45.0798 43.7982L24.3078 9.61457C28.1186 7.29885 33.9413 6.39028 39.4538 9.52696L19.6716 44.2928ZM45.5372 43.5118C54.3399 37.832 58.049 28.3113 57.5946 19.4731L17.6473 21.5269C17.5651 19.9274 17.8179 17.8152 18.8788 15.5724C19.9626 13.2812 21.6913 11.2941 23.8504 9.90101L45.5372 43.5118Z" fill="url(#paint1_linear_1_10863)" mask="url(#path-1-inside-1_1_10863)"/>
<path d="M33.0752 23.9254L43.3883 41.0613L43.5823 40.9446L43.7735 40.8235L33.0752 23.9254ZM31.1812 24.061L21.0068 41.2797L21.2463 41.4212L21.4896 41.556L31.1812 24.061ZM28.1163 14.1579L22.5351 33.3634L22.6867 33.4075L22.8389 33.4491L28.1163 14.1579ZM23.8461 17.0407L40.7382 27.7485L40.8052 27.6428L40.8708 27.5364L23.8461 17.0407ZM20.1269 22.9079H0.126881V91.815L37.019 33.6157L20.1269 22.9079ZM20.1269 15.6841H40.1269V15.4769L40.1226 15.2697L20.1269 15.6841ZM18.5083 12.7335L12.8415 31.9139L18.5083 12.7335ZM15.7878 14.124L-0.83341 3.0004L-0.971131 3.20618L-1.10371 3.41532L15.7878 14.124ZM7.48845 27.2151L-10.1635 36.6178L5.9866 66.9368L24.38 37.9238L7.48845 27.2151ZM34.4527 20.5678H14.4527V21.0189L14.4731 21.4695L34.4527 20.5678ZM37.621 20.5H17.621V21.0138L17.6473 21.5269L37.621 20.5ZM37.621 20.4322H57.621V20.3963L57.6208 20.3604L37.621 20.4322ZM32.0077 33.3198L45.6471 47.9473L45.6514 47.9433L32.0077 33.3198ZM32.0766 31.0814L17.2736 44.5302L17.4653 44.7413L17.663 44.9467L32.0766 31.0814ZM29.8382 30.9796L16.6158 15.974L16.1997 16.3407L15.8045 16.7298L29.8382 30.9796ZM29.8037 31.0136L43.4474 45.6371L43.6449 45.4529L43.8374 45.2634L29.8037 31.0136ZM9.41693 30.0979L-7.48071 19.3988L-15.5787 32.1885L-5.46867 43.4552L9.41693 30.0979ZM16.8898 18.2955H36.8898V-50.6781L-0.00784993 7.59649L16.8898 18.2955ZM22.3653 25.3159L39.207 36.1028L39.2625 36.0162L39.317 35.929L22.3653 25.3159ZM26.4633 18.7703L9.90122 7.55887L9.70105 7.85458L9.51156 8.15724L26.4633 18.7703ZM26.8421 18.2277H46.8421V-29.5394L12.8085 3.9779L26.8421 18.2277ZM29.5627 26.9099L39.4538 9.52696L39.3379 9.46105L39.2213 9.3967L29.5627 26.9099ZM34.6938 26.7064L45.0798 43.7982L45.3104 43.6581L45.5372 43.5118L34.6938 26.7064ZM22.7621 6.78946C26.613 4.47187 33.6477 2.56361 40.8728 6.56611L21.4896 41.556C29.8167 46.1689 38.2978 44.125 43.3883 41.0613L22.7621 6.78946ZM41.3556 6.84243C49.3629 11.5739 50.0792 19.3346 50.0792 21.4835H10.0792C10.0792 26.1421 11.622 35.7342 21.0068 41.2797L41.3556 6.84243ZM50.0792 21.4835V17.6512H10.0792V21.4835H50.0792ZM50.0792 17.6512C50.0792 12.04 47.5084 -1.27195 33.3937 -5.13323L22.8389 33.4491C17.5594 32.0048 13.9894 28.4822 12.0958 25.0872C10.3586 21.9724 10.0792 19.1865 10.0792 17.6512H50.0792ZM33.6975 -5.04753C22.7137 -8.23949 14.6789 -2.30637 11.8171 0.346192C8.84714 3.09909 7.04993 6.1743 6.82137 6.54503L40.8708 27.5364C41.2277 26.9575 40.5153 28.2861 39.0088 29.6824C37.6106 30.9784 31.4182 35.9449 22.5351 33.3634L33.6975 -5.04753ZM6.95399 6.3329L3.23478 12.2002L37.019 33.6157L40.7382 27.7485L6.95399 6.3329ZM40.1269 22.9079V15.6841H0.126881V22.9079H40.1269ZM40.1226 15.2697C40.067 12.5859 39.5942 8.37331 37.2055 4.04195C34.494 -0.87499 29.938 -4.74423 24.1752 -6.44685L12.8415 31.9139C8.1118 30.5165 4.34785 27.2917 2.17868 23.3582C0.332448 20.0104 0.152353 17.1205 0.131174 16.0985L40.1226 15.2697ZM24.1752 -6.44685C20.2449 -7.60806 15.1465 -7.88767 9.8758 -5.79233C4.73738 -3.74957 1.30516 -0.195109 -0.83341 3.0004L32.409 25.2477C31.2691 26.9509 28.8528 29.7084 24.6528 31.3781C20.3205 33.1004 16.0831 32.8716 12.8415 31.9139L24.1752 -6.44685ZM-1.10371 3.41532L-9.40307 16.5064L24.38 37.9238L32.6793 24.8328L-1.10371 3.41532ZM25.1404 17.8125C25.553 18.5872 25.801 19.5037 25.801 20.5H-14.199C-14.199 26.1765 -12.7801 31.7055 -10.1635 36.6178L25.1404 17.8125ZM25.801 20.5C25.801 23.6833 23.2467 26.188 20.1269 26.188V-13.812C1.23482 -13.812 -14.199 1.51248 -14.199 20.5H25.801ZM20.1269 26.188C17.007 26.188 14.4527 23.6833 14.4527 20.5H54.4527C54.4527 1.51248 39.0189 -13.812 20.1269 -13.812V26.188ZM14.4527 20.5V20.5339H54.4527V20.5H14.4527ZM14.4527 20.5339V20.5678H54.4527V20.5339H14.4527ZM14.4731 21.4695C14.3608 18.9821 15.0132 11.6893 22.377 7.02726L43.7735 40.8235C53.0658 34.9405 54.6824 25.2059 54.4324 19.6662L14.4731 21.4695ZM57.621 20.5V20.4661H17.621V20.5H57.621ZM57.621 20.4661V20.4322H17.621V20.4661H57.621ZM57.6208 20.3604C57.5469 -0.246501 40.7611 -17 20.1269 -17V23C18.7086 23 17.6261 21.9151 17.6211 20.5039L57.6208 20.3604ZM20.1269 -17C-0.552704 -17 -17.3672 -0.219899 -17.3672 20.5H22.6328C22.6328 21.8885 21.5217 23 20.1269 23V-17ZM-17.3672 20.5C-17.3672 41.1608 -0.577927 58 20.1269 58V18C21.5469 18 22.6328 19.1028 22.6328 20.5H-17.3672ZM20.1269 58C29.6434 58 38.7158 54.4104 45.6471 47.9473L18.3683 18.6922C18.5749 18.4995 18.851 18.3168 19.1821 18.1863C19.5138 18.0554 19.8424 18 20.1269 18V58ZM45.6514 47.9433C54.3291 39.8471 54.9828 26.0445 46.4902 17.2161L17.663 44.9467C10.4101 37.407 10.9949 25.5715 18.364 18.6962L45.6514 47.9433ZM46.8796 17.6326C38.6062 8.52611 25.0839 8.51226 16.6158 15.974L43.0606 45.9853C35.9011 52.2939 24.3761 52.3479 17.2736 44.5302L46.8796 17.6326ZM29.8382 30.9796C15.8038 16.7305 15.8042 16.7302 15.8045 16.7298C15.8045 16.7299 15.8045 16.7298 15.8045 16.7298C15.8045 16.7298 15.8045 16.7298 15.8045 16.7298C15.8045 16.7298 15.8045 16.7298 15.8045 16.7298C15.8045 16.7298 15.8045 16.7298 15.8045 16.7298C15.8045 16.7298 15.8045 16.7298 15.8045 16.7298C15.8045 16.7298 15.8045 16.7298 15.8045 16.7298C15.8045 16.7298 15.8045 16.7298 15.8045 16.7298C15.8044 16.7299 15.8046 16.7297 15.8045 16.7298C15.8045 16.7299 15.8045 16.7298 15.8045 16.7298C15.8045 16.7298 15.8045 16.7298 15.8045 16.7298C15.8045 16.7298 15.8045 16.7298 15.8045 16.7298C15.8045 16.7299 15.8045 16.7298 15.8045 16.7299C15.8045 16.7299 15.8045 16.7298 15.8045 16.7299C15.8045 16.7299 15.8045 16.7299 15.8045 16.7299C15.8044 16.7299 15.8045 16.7299 15.8045 16.7299C15.8043 16.7301 15.8044 16.73 15.804 16.7304C15.8036 16.7308 15.8034 16.7309 15.8027 16.7316C15.7897 16.7445 15.8137 16.7208 15.8002 16.7341C15.7858 16.7483 15.7974 16.7369 15.7701 16.7638L43.8374 45.2634C43.8608 45.2403 43.857 45.2441 43.8675 45.2337C43.8708 45.2305 43.8696 45.2316 43.8713 45.23C43.8715 45.2297 43.8711 45.2301 43.8713 45.2299C43.8714 45.2298 43.8713 45.2299 43.8714 45.2299C43.8719 45.2293 43.8709 45.2304 43.8714 45.2298C43.8715 45.2298 43.8714 45.2299 43.8714 45.2298C43.8714 45.2298 43.8714 45.2298 43.8714 45.2298C43.8714 45.2298 43.8714 45.2298 43.8714 45.2298C43.8715 45.2298 43.8715 45.2298 43.8715 45.2298C43.8715 45.2298 43.8715 45.2298 43.8715 45.2298C43.8715 45.2297 43.8715 45.2298 43.8715 45.2297C43.8715 45.2297 43.8716 45.2297 43.8716 45.2297C43.8728 45.2285 43.8706 45.2307 43.8717 45.2295C43.8718 45.2295 43.8718 45.2295 43.8718 45.2295C43.8718 45.2295 43.8718 45.2295 43.8718 45.2295C43.8718 45.2295 43.8718 45.2294 43.8718 45.2295C43.8718 45.2295 43.8718 45.2295 43.8718 45.2295C43.8718 45.2295 43.8718 45.2295 43.8718 45.2295C43.8718 45.2295 43.8718 45.2294 43.8719 45.2294C43.8721 45.2291 43.8725 45.2287 29.8382 30.9796ZM16.16 16.39C17.2482 15.3747 18.6125 14.8459 20.058 14.8459V54.8459C28.7353 54.8459 37.1248 51.5362 43.4474 45.6371L16.16 16.39ZM20.058 14.8459C21.7364 14.8459 23.2855 15.6071 24.3025 16.7405L-5.46867 43.4552C0.782835 50.422 9.90813 54.8459 20.058 54.8459V14.8459ZM26.3146 40.7969L33.7874 28.9946L-0.00784993 7.59649L-7.48071 19.3988L26.3146 40.7969ZM-3.11021 18.2955V23.7558H36.8898V18.2955H-3.11021ZM-3.11021 23.7558C-3.11021 27.5262 -2.38318 32.5377 0.699906 37.3244C4.02445 42.4859 8.8495 45.4596 13.4672 46.7329L24.1004 8.17212C27.8572 9.20807 31.7353 11.6391 34.328 15.6645C36.6793 19.315 36.8898 22.5968 36.8898 23.7558H-3.11021ZM13.4672 46.7329C17.8837 47.9508 23.4112 47.9772 28.899 45.3892C33.9626 43.0011 37.2066 39.2261 39.207 36.1028L5.52358 14.529C6.11211 13.6101 7.99578 11.0221 11.8369 9.21063C16.1021 7.19913 20.5449 7.19168 24.1004 8.17212L13.4672 46.7329ZM39.317 35.929L43.4151 29.3835L9.51156 8.15724L5.41354 14.7028L39.317 35.929ZM43.0254 29.9818C43.2642 29.6291 43.448 29.3357 43.5096 29.2374C43.6302 29.0448 43.5219 29.2183 43.4509 29.3281C43.3489 29.486 43.0848 29.8902 42.7055 30.3926C42.3221 30.9003 41.7154 31.6506 40.8758 32.4775L12.8085 3.9779C11.9 4.87265 11.2287 5.6993 10.7829 6.28964C10.3412 6.87473 10.0168 7.36791 9.8545 7.61911C9.72332 7.82212 9.55466 8.0932 9.61292 8.0002C9.61597 7.99534 9.64759 7.94483 9.69306 7.87414C9.73993 7.80127 9.8111 7.69201 9.90122 7.55887L43.0254 29.9818ZM6.84213 18.2277V21.5514H46.8421V18.2277H6.84213ZM6.84213 21.5514C6.84213 29.2041 10.1716 39.0556 19.9041 44.4231L39.2213 9.3967C45.51 12.865 46.8421 18.7823 46.8421 21.5514H6.84213ZM19.6716 44.2928C28.2834 49.1931 38.0319 48.081 45.0798 43.7982L24.3078 9.61457C28.1186 7.29885 33.9413 6.39028 39.4538 9.52696L19.6716 44.2928ZM45.5372 43.5118C54.3399 37.832 58.049 28.3113 57.5946 19.4731L17.6473 21.5269C17.5651 19.9274 17.8179 17.8152 18.8788 15.5724C19.9626 13.2812 21.6913 11.2941 23.8504 9.90101L45.5372 43.5118Z" fill="#D1D2D7" fill-opacity="0.3" mask="url(#path-1-inside-1_1_10863)"/>
<defs>
<linearGradient id="paint0_linear_1_10863" x1="37.6328" y1="38" x2="15.8521" y2="21.0316" gradientUnits="userSpaceOnUse">
<stop stop-color="#ECAF5A"/>
<stop offset="1" stop-color="#89683D"/>
</linearGradient>
<linearGradient id="paint1_linear_1_10863" x1="37.6328" y1="38" x2="15.8521" y2="21.0316" gradientUnits="userSpaceOnUse">
<stop stop-color="#ECAF5A"/>
<stop offset="1" stop-color="#89683D"/>
</linearGradient>
</defs>
</svg>
