<svg width="27" height="20" viewBox="0 0 27 20" fill="none" xmlns="http://www.w3.org/2000/svg">
<path d="M25.4686 7.90718H1.63199C0.604036 7.90718 0.514648 8.7396 0.514648 9.76941C0.514648 10.7992 0.604036 11.6317 1.63199 11.6317H25.4686C26.4966 11.6317 26.586 10.7992 26.586 9.76941C26.586 8.7396 26.4966 7.90718 25.4686 7.90718ZM25.4686 15.3561H1.63199C0.604036 15.3561 0.514648 16.1886 0.514648 17.2184C0.514648 18.2482 0.604036 19.0806 1.63199 19.0806H25.4686C26.4966 19.0806 26.586 18.2482 26.586 17.2184C26.586 16.1886 26.4966 15.3561 25.4686 15.3561ZM1.63199 4.1827H25.4686C26.4966 4.1827 26.586 3.35028 26.586 2.32046C26.586 1.29064 26.4966 0.458221 25.4686 0.458221H1.63199C0.604036 0.458221 0.514648 1.29064 0.514648 2.32046C0.514648 3.35028 0.604036 4.1827 1.63199 4.1827Z" fill="url(#paint0_linear_1_11430)"/>
<path d="M25.4686 7.90718H1.63199C0.604036 7.90718 0.514648 8.7396 0.514648 9.76941C0.514648 10.7992 0.604036 11.6317 1.63199 11.6317H25.4686C26.4966 11.6317 26.586 10.7992 26.586 9.76941C26.586 8.7396 26.4966 7.90718 25.4686 7.90718ZM25.4686 15.3561H1.63199C0.604036 15.3561 0.514648 16.1886 0.514648 17.2184C0.514648 18.2482 0.604036 19.0806 1.63199 19.0806H25.4686C26.4966 19.0806 26.586 18.2482 26.586 17.2184C26.586 16.1886 26.4966 15.3561 25.4686 15.3561ZM1.63199 4.1827H25.4686C26.4966 4.1827 26.586 3.35028 26.586 2.32046C26.586 1.29064 26.4966 0.458221 25.4686 0.458221H1.63199C0.604036 0.458221 0.514648 1.29064 0.514648 2.32046C0.514648 3.35028 0.604036 4.1827 1.63199 4.1827Z" fill="#D1D2D7" fill-opacity="0.2"/>
<defs>
<linearGradient id="paint0_linear_1_11430" x1="26.586" y1="19.0806" x2="14.6789" y2="6.09389" gradientUnits="userSpaceOnUse">
<stop stop-color="#ECAF5A"/>
<stop offset="1" stop-color="#89683D"/>
</linearGradient>
</defs>
</svg>
