<svg width="9" height="9" viewBox="0 0 9 9" fill="none" xmlns="http://www.w3.org/2000/svg">
<path fill-rule="evenodd" clip-rule="evenodd" d="M6.95004 2.35211C7.30409 1.88489 7.98328 1.78334 8.46704 2.12529C8.9508 2.46724 9.05595 3.1232 8.70189 3.59043L5.34269 8.02331C4.98028 8.50155 4.28123 8.55518 3.85012 8.13781L1.22851 5.59981C0.805116 5.18992 0.805934 4.52615 1.23034 4.11723C1.65474 3.70831 2.34202 3.7091 2.76541 4.11899L4.40689 5.70811L6.95004 2.35211Z" fill="white"/>
<mask id="mask0_1_8578" style="mask-type:alpha" maskUnits="userSpaceOnUse" x="0" y="1" width="9" height="8">
<path fill-rule="evenodd" clip-rule="evenodd" d="M6.95004 2.35211C7.30409 1.88489 7.98328 1.78334 8.46704 2.12529C8.9508 2.46724 9.05595 3.1232 8.70189 3.59043L5.34269 8.02331C4.98028 8.50155 4.28123 8.55518 3.85012 8.13781L1.22851 5.59981C0.805116 5.18992 0.805934 4.52615 1.23034 4.11723C1.65474 3.70831 2.34202 3.7091 2.76541 4.11899L4.40689 5.70811L6.95004 2.35211Z" fill="white"/>
</mask>
<g mask="url(#mask0_1_8578)">
</g>
</svg>
