<svg width="41" height="41" viewBox="0 0 41 41" fill="none" xmlns="http://www.w3.org/2000/svg">
<path d="M34.1552 20.5C34.1552 28.2443 27.8772 34.5224 20.1328 34.5224M34.1552 20.5C34.1552 12.7556 27.8772 6.47754 20.1328 6.47754M34.1552 20.5H6.11035M20.1328 34.5224C12.3884 34.5224 6.11035 28.2443 6.11035 20.5M20.1328 34.5224C23.6402 30.6826 25.6334 25.6994 25.7418 20.5C25.6334 15.3005 23.6402 10.3174 20.1328 6.47754M20.1328 34.5224C16.6254 30.6826 14.6321 25.6994 14.5238 20.5C14.6321 15.3005 16.6254 10.3174 20.1328 6.47754M6.11035 20.5C6.11035 12.7556 12.3884 6.47754 20.1328 6.47754" stroke="url(#paint0_linear_1_10868)" stroke-width="2.5" stroke-linecap="round" stroke-linejoin="round"/>
<path d="M34.1552 20.5C34.1552 28.2443 27.8772 34.5224 20.1328 34.5224M34.1552 20.5C34.1552 12.7556 27.8772 6.47754 20.1328 6.47754M34.1552 20.5H6.11035M20.1328 34.5224C12.3884 34.5224 6.11035 28.2443 6.11035 20.5M20.1328 34.5224C23.6402 30.6826 25.6334 25.6994 25.7418 20.5C25.6334 15.3005 23.6402 10.3174 20.1328 6.47754M20.1328 34.5224C16.6254 30.6826 14.6321 25.6994 14.5238 20.5C14.6321 15.3005 16.6254 10.3174 20.1328 6.47754M6.11035 20.5C6.11035 12.7556 12.3884 6.47754 20.1328 6.47754" stroke="#D1D2D7" stroke-opacity="0.3" stroke-width="2.5" stroke-linecap="round" stroke-linejoin="round"/>
<path d="M20.1328 38C29.7978 38 37.6328 30.165 37.6328 20.5C37.6328 10.835 29.7978 3 20.1328 3C10.4678 3 2.63281 10.835 2.63281 20.5C2.63281 30.165 10.4678 38 20.1328 38Z" stroke="url(#paint1_linear_1_10868)" stroke-width="1.5" stroke-linecap="round" stroke-linejoin="round"/>
<path d="M20.1328 38C29.7978 38 37.6328 30.165 37.6328 20.5C37.6328 10.835 29.7978 3 20.1328 3C10.4678 3 2.63281 10.835 2.63281 20.5C2.63281 30.165 10.4678 38 20.1328 38Z" stroke="#D1D2D7" stroke-opacity="0.2" stroke-width="1.5" stroke-linecap="round" stroke-linejoin="round"/>
<defs>
<linearGradient id="paint0_linear_1_10868" x1="34.1552" y1="34.5224" x2="16.7027" y2="20.926" gradientUnits="userSpaceOnUse">
<stop stop-color="#ECAF5A"/>
<stop offset="1" stop-color="#89683D"/>
</linearGradient>
<linearGradient id="paint1_linear_1_10868" x1="37.6328" y1="38" x2="15.8521" y2="21.0316" gradientUnits="userSpaceOnUse">
<stop stop-color="#ECAF5A"/>
<stop offset="1" stop-color="#89683D"/>
</linearGradient>
</defs>
</svg>
