<svg width="41" height="41" viewBox="0 0 41 41" fill="none" xmlns="http://www.w3.org/2000/svg">
<path d="M27.841 30.2939L27.8411 30.2937C28.8783 29.5457 29.7945 28.6386 30.5565 27.6048C31.911 25.7645 32.7339 23.5785 32.9331 21.291C33.1322 19.0035 32.6996 16.7051 31.6839 14.6527C30.6682 12.6004 29.1095 10.8751 27.1825 9.66938C25.2556 8.46367 23.0361 7.82475 20.772 7.82364L27.841 30.2939ZM27.841 30.2939C26.7941 31.0501 25.6355 31.6331 24.4085 32.0211C24.4085 32.0211 24.4085 32.0211 24.4085 32.0211L24.0541 32.1331L23.9561 32.1641M27.841 30.2939L23.9561 32.1641M23.9561 32.1641L23.8977 32.2486M23.9561 32.1641L23.8977 32.2486M23.8977 32.2486L23.6848 32.5568L20.9659 36.4918C20.943 36.5249 20.9128 36.5516 20.8783 36.5698C20.8437 36.5881 20.8055 36.5975 20.767 36.5975C20.7284 36.5975 20.6903 36.5881 20.6557 36.5698L20.5158 36.8352M23.8977 32.2486L20.5158 36.8352M20.5158 36.8352L20.6557 36.5698C20.6211 36.5516 20.591 36.5249 20.5681 36.4918L20.3213 36.6624L20.5681 36.4918L17.8492 32.5568L17.6363 32.2486L17.5779 32.1641M20.5158 36.8352L17.5779 32.1641M17.5779 32.1641L17.4799 32.1331M17.5779 32.1641L17.4799 32.1331M17.4799 32.1331L17.1258 32.0212M17.4799 32.1331L17.1258 32.0212M17.1258 32.0212L17.1255 32.0211C14.34 31.1379 11.9578 29.2728 10.4112 26.7626C8.86452 24.2522 8.25611 21.2631 8.69675 18.3368C9.13738 15.4106 10.5977 12.7419 12.8122 10.8136C15.0266 8.88545 17.8486 7.82508 20.767 7.82364C20.7671 7.82364 20.7671 7.82364 20.7672 7.82364H20.7718L17.1258 32.0212ZM20.7725 6.12117H20.7724H20.767C13.1052 6.12117 6.8655 12.4483 6.86553 20.202C6.86554 26.4774 10.9189 31.7962 16.5222 33.6141L19.1831 37.4651C19.3609 37.7224 19.5975 37.9329 19.8733 38.0784C20.1491 38.2239 20.4556 38.2999 20.767 38.2999C21.0783 38.2999 21.3849 38.2239 21.6607 38.0784C21.9365 37.9329 22.1731 37.7224 22.3509 37.4651L25.0117 33.6141C30.615 31.7962 34.6685 26.4774 34.6685 20.202C34.6685 12.431 28.4512 6.12419 20.7725 6.12117Z" fill="url(#paint0_linear_1_10875)"/>
<path d="M27.841 30.2939L27.8411 30.2937C28.8783 29.5457 29.7945 28.6386 30.5565 27.6048C31.911 25.7645 32.7339 23.5785 32.9331 21.291C33.1322 19.0035 32.6996 16.7051 31.6839 14.6527C30.6682 12.6004 29.1095 10.8751 27.1825 9.66938C25.2556 8.46367 23.0361 7.82475 20.772 7.82364L27.841 30.2939ZM27.841 30.2939C26.7941 31.0501 25.6355 31.6331 24.4085 32.0211C24.4085 32.0211 24.4085 32.0211 24.4085 32.0211L24.0541 32.1331L23.9561 32.1641M27.841 30.2939L23.9561 32.1641M23.9561 32.1641L23.8977 32.2486M23.9561 32.1641L23.8977 32.2486M23.8977 32.2486L23.6848 32.5568L20.9659 36.4918C20.943 36.5249 20.9128 36.5516 20.8783 36.5698C20.8437 36.5881 20.8055 36.5975 20.767 36.5975C20.7284 36.5975 20.6903 36.5881 20.6557 36.5698L20.5158 36.8352M23.8977 32.2486L20.5158 36.8352M20.5158 36.8352L20.6557 36.5698C20.6211 36.5516 20.591 36.5249 20.5681 36.4918L20.3213 36.6624L20.5681 36.4918L17.8492 32.5568L17.6363 32.2486L17.5779 32.1641M20.5158 36.8352L17.5779 32.1641M17.5779 32.1641L17.4799 32.1331M17.5779 32.1641L17.4799 32.1331M17.4799 32.1331L17.1258 32.0212M17.4799 32.1331L17.1258 32.0212M17.1258 32.0212L17.1255 32.0211C14.34 31.1379 11.9578 29.2728 10.4112 26.7626C8.86452 24.2522 8.25611 21.2631 8.69675 18.3368C9.13738 15.4106 10.5977 12.7419 12.8122 10.8136C15.0266 8.88545 17.8486 7.82508 20.767 7.82364C20.7671 7.82364 20.7671 7.82364 20.7672 7.82364H20.7718L17.1258 32.0212ZM20.7725 6.12117H20.7724H20.767C13.1052 6.12117 6.8655 12.4483 6.86553 20.202C6.86554 26.4774 10.9189 31.7962 16.5222 33.6141L19.1831 37.4651C19.3609 37.7224 19.5975 37.9329 19.8733 38.0784C20.1491 38.2239 20.4556 38.2999 20.767 38.2999C21.0783 38.2999 21.3849 38.2239 21.6607 38.0784C21.9365 37.9329 22.1731 37.7224 22.3509 37.4651L25.0117 33.6141C30.615 31.7962 34.6685 26.4774 34.6685 20.202C34.6685 12.431 28.4512 6.12419 20.7725 6.12117Z" fill="#D1D2D7" fill-opacity="0.3"/>
<path d="M27.841 30.2939L27.8411 30.2937C28.8783 29.5457 29.7945 28.6386 30.5565 27.6048C31.911 25.7645 32.7339 23.5785 32.9331 21.291C33.1322 19.0035 32.6996 16.7051 31.6839 14.6527C30.6682 12.6004 29.1095 10.8751 27.1825 9.66938C25.2556 8.46367 23.0361 7.82475 20.772 7.82364L27.841 30.2939ZM27.841 30.2939C26.7941 31.0501 25.6355 31.6331 24.4085 32.0211C24.4085 32.0211 24.4085 32.0211 24.4085 32.0211L24.0541 32.1331L23.9561 32.1641M27.841 30.2939L23.9561 32.1641M23.9561 32.1641L23.8977 32.2486M23.9561 32.1641L23.8977 32.2486M23.8977 32.2486L23.6848 32.5568L20.9659 36.4918C20.943 36.5249 20.9128 36.5516 20.8783 36.5698C20.8437 36.5881 20.8055 36.5975 20.767 36.5975C20.7284 36.5975 20.6903 36.5881 20.6557 36.5698L20.5158 36.8352M23.8977 32.2486L20.5158 36.8352M20.5158 36.8352L20.6557 36.5698C20.6211 36.5516 20.591 36.5249 20.5681 36.4918L20.3213 36.6624L20.5681 36.4918L17.8492 32.5568L17.6363 32.2486L17.5779 32.1641M20.5158 36.8352L17.5779 32.1641M17.5779 32.1641L17.4799 32.1331M17.5779 32.1641L17.4799 32.1331M17.4799 32.1331L17.1258 32.0212M17.4799 32.1331L17.1258 32.0212M17.1258 32.0212L17.1255 32.0211C14.34 31.1379 11.9578 29.2728 10.4112 26.7626C8.86452 24.2522 8.25611 21.2631 8.69675 18.3368C9.13738 15.4106 10.5977 12.7419 12.8122 10.8136C15.0266 8.88545 17.8486 7.82508 20.767 7.82364C20.7671 7.82364 20.7671 7.82364 20.7672 7.82364H20.7718L17.1258 32.0212ZM20.7725 6.12117H20.7724H20.767C13.1052 6.12117 6.8655 12.4483 6.86553 20.202C6.86554 26.4774 10.9189 31.7962 16.5222 33.6141L19.1831 37.4651C19.3609 37.7224 19.5975 37.9329 19.8733 38.0784C20.1491 38.2239 20.4556 38.2999 20.767 38.2999C21.0783 38.2999 21.3849 38.2239 21.6607 38.0784C21.9365 37.9329 22.1731 37.7224 22.3509 37.4651L25.0117 33.6141C30.615 31.7962 34.6685 26.4774 34.6685 20.202C34.6685 12.431 28.4512 6.12419 20.7725 6.12117Z" stroke="url(#paint1_linear_1_10875)" stroke-width="0.6"/>
<path d="M27.841 30.2939L27.8411 30.2937C28.8783 29.5457 29.7945 28.6386 30.5565 27.6048C31.911 25.7645 32.7339 23.5785 32.9331 21.291C33.1322 19.0035 32.6996 16.7051 31.6839 14.6527C30.6682 12.6004 29.1095 10.8751 27.1825 9.66938C25.2556 8.46367 23.0361 7.82475 20.772 7.82364L27.841 30.2939ZM27.841 30.2939C26.7941 31.0501 25.6355 31.6331 24.4085 32.0211C24.4085 32.0211 24.4085 32.0211 24.4085 32.0211L24.0541 32.1331L23.9561 32.1641M27.841 30.2939L23.9561 32.1641M23.9561 32.1641L23.8977 32.2486M23.9561 32.1641L23.8977 32.2486M23.8977 32.2486L23.6848 32.5568L20.9659 36.4918C20.943 36.5249 20.9128 36.5516 20.8783 36.5698C20.8437 36.5881 20.8055 36.5975 20.767 36.5975C20.7284 36.5975 20.6903 36.5881 20.6557 36.5698L20.5158 36.8352M23.8977 32.2486L20.5158 36.8352M20.5158 36.8352L20.6557 36.5698C20.6211 36.5516 20.591 36.5249 20.5681 36.4918L20.3213 36.6624L20.5681 36.4918L17.8492 32.5568L17.6363 32.2486L17.5779 32.1641M20.5158 36.8352L17.5779 32.1641M17.5779 32.1641L17.4799 32.1331M17.5779 32.1641L17.4799 32.1331M17.4799 32.1331L17.1258 32.0212M17.4799 32.1331L17.1258 32.0212M17.1258 32.0212L17.1255 32.0211C14.34 31.1379 11.9578 29.2728 10.4112 26.7626C8.86452 24.2522 8.25611 21.2631 8.69675 18.3368C9.13738 15.4106 10.5977 12.7419 12.8122 10.8136C15.0266 8.88545 17.8486 7.82508 20.767 7.82364C20.7671 7.82364 20.7671 7.82364 20.7672 7.82364H20.7718L17.1258 32.0212ZM20.7725 6.12117H20.7724H20.767C13.1052 6.12117 6.8655 12.4483 6.86553 20.202C6.86554 26.4774 10.9189 31.7962 16.5222 33.6141L19.1831 37.4651C19.3609 37.7224 19.5975 37.9329 19.8733 38.0784C20.1491 38.2239 20.4556 38.2999 20.767 38.2999C21.0783 38.2999 21.3849 38.2239 21.6607 38.0784C21.9365 37.9329 22.1731 37.7224 22.3509 37.4651L25.0117 33.6141C30.615 31.7962 34.6685 26.4774 34.6685 20.202C34.6685 12.431 28.4512 6.12419 20.7725 6.12117Z" stroke="#D1D2D7" stroke-opacity="0.3" stroke-width="0.6"/>
<path d="M28.6613 35.3689L28.5903 35.2348L28.076 34.2632L28.0067 34.1322L28.1369 34.0613C29.4908 33.3241 30.7306 32.3892 31.8164 31.2866L31.8165 31.2865C34.7686 28.2955 36.3945 24.3191 36.3945 20.0882C36.3945 15.8575 34.7686 11.881 31.8165 8.88996C28.8645 5.89898 24.9407 4.25247 20.7667 4.25247C16.5928 4.25247 12.669 5.89898 9.71699 8.88996L9.61023 8.78459L9.71699 8.88996C6.76484 11.881 5.13901 15.8574 5.13901 20.0883C5.13885 20.9888 5.21333 21.8878 5.36166 22.7757C5.36166 22.7757 5.36166 22.7757 5.36166 22.7758L5.21371 22.8005C5.23363 22.9194 5.23165 23.0401 5.22966 23.1606C5.22744 23.2954 5.22523 23.4299 5.25374 23.5614L28.6613 35.3689ZM28.6613 35.3689L28.7946 35.2963C30.2684 34.494 31.6177 33.4766 32.7995 32.2768L28.6613 35.3689Z" fill="url(#paint2_linear_1_10875)"/>
<path d="M28.6613 35.3689L28.5903 35.2348L28.076 34.2632L28.0067 34.1322L28.1369 34.0613C29.4908 33.3241 30.7306 32.3892 31.8164 31.2866L31.8165 31.2865C34.7686 28.2955 36.3945 24.3191 36.3945 20.0882C36.3945 15.8575 34.7686 11.881 31.8165 8.88996C28.8645 5.89898 24.9407 4.25247 20.7667 4.25247C16.5928 4.25247 12.669 5.89898 9.71699 8.88996L9.61023 8.78459L9.71699 8.88996C6.76484 11.881 5.13901 15.8574 5.13901 20.0883C5.13885 20.9888 5.21333 21.8878 5.36166 22.7757C5.36166 22.7757 5.36166 22.7757 5.36166 22.7758L5.21371 22.8005C5.23363 22.9194 5.23165 23.0401 5.22966 23.1606C5.22744 23.2954 5.22523 23.4299 5.25374 23.5614L28.6613 35.3689ZM28.6613 35.3689L28.7946 35.2963C30.2684 34.494 31.6177 33.4766 32.7995 32.2768L28.6613 35.3689Z" fill="#D1D2D7" fill-opacity="0.2"/>
<path d="M28.6613 35.3689L28.5903 35.2348L28.076 34.2632L28.0067 34.1322L28.1369 34.0613C29.4908 33.3241 30.7306 32.3892 31.8164 31.2866L31.8165 31.2865C34.7686 28.2955 36.3945 24.3191 36.3945 20.0882C36.3945 15.8575 34.7686 11.881 31.8165 8.88996C28.8645 5.89898 24.9407 4.25247 20.7667 4.25247C16.5928 4.25247 12.669 5.89898 9.71699 8.88996L9.61023 8.78459L9.71699 8.88996C6.76484 11.881 5.13901 15.8574 5.13901 20.0883C5.13885 20.9888 5.21333 21.8878 5.36166 22.7757C5.36166 22.7757 5.36166 22.7757 5.36166 22.7758L5.21371 22.8005C5.23363 22.9194 5.23165 23.0401 5.22966 23.1606C5.22744 23.2954 5.22523 23.4299 5.25374 23.5614L28.6613 35.3689ZM28.6613 35.3689L28.7946 35.2963C30.2684 34.494 31.6177 33.4766 32.7995 32.2768L28.6613 35.3689Z" stroke="url(#paint3_linear_1_10875)" stroke-width="0.3"/>
<path d="M28.6613 35.3689L28.5903 35.2348L28.076 34.2632L28.0067 34.1322L28.1369 34.0613C29.4908 33.3241 30.7306 32.3892 31.8164 31.2866L31.8165 31.2865C34.7686 28.2955 36.3945 24.3191 36.3945 20.0882C36.3945 15.8575 34.7686 11.881 31.8165 8.88996C28.8645 5.89898 24.9407 4.25247 20.7667 4.25247C16.5928 4.25247 12.669 5.89898 9.71699 8.88996L9.61023 8.78459L9.71699 8.88996C6.76484 11.881 5.13901 15.8574 5.13901 20.0883C5.13885 20.9888 5.21333 21.8878 5.36166 22.7757C5.36166 22.7757 5.36166 22.7757 5.36166 22.7758L5.21371 22.8005C5.23363 22.9194 5.23165 23.0401 5.22966 23.1606C5.22744 23.2954 5.22523 23.4299 5.25374 23.5614L28.6613 35.3689ZM28.6613 35.3689L28.7946 35.2963C30.2684 34.494 31.6177 33.4766 32.7995 32.2768L28.6613 35.3689Z" stroke="#D1D2D7" stroke-opacity="0.3" stroke-width="0.3"/>
<path d="M29.0749 36.1783C30.2699 35.3767 30.8652 34.1554 30.4046 33.4505C29.9439 32.7456 28.6018 32.8241 27.4068 33.6257C26.2119 34.4274 25.6166 35.6486 26.0772 36.3535C26.5379 37.0584 27.88 36.98 29.0749 36.1783Z" fill="url(#paint4_linear_1_10875)"/>
<path d="M14.1257 22.3654H16.2057C16.4129 22.3654 16.571 22.4084 16.6799 22.4946C16.7329 22.5356 16.7754 22.5889 16.8039 22.65C16.8323 22.7112 16.8458 22.7783 16.8433 22.8458C16.8447 22.9076 16.8339 22.969 16.8117 23.0265C16.7895 23.084 16.7562 23.1365 16.7138 23.1809C16.6274 23.2725 16.4966 23.3182 16.3213 23.3182H13.3885C13.1892 23.3182 13.0338 23.2623 12.9223 23.1506C12.8691 23.1002 12.8268 23.0393 12.798 22.9715C12.7692 22.9038 12.7545 22.8308 12.7549 22.757C12.7549 22.6601 12.7907 22.5316 12.8625 22.3714C12.9201 22.2335 12.9995 22.106 13.0976 21.9939C13.4508 21.6225 13.7696 21.3042 14.0539 21.0391C14.3382 20.774 14.5414 20.5998 14.6636 20.5163C14.8602 20.3786 15.0425 20.221 15.2076 20.0459C15.3424 19.9031 15.454 19.7396 15.5382 19.5614C15.6108 19.4097 15.6496 19.2436 15.6518 19.0749C15.6544 18.9124 15.6123 18.7524 15.5303 18.6127C15.4508 18.4783 15.3364 18.3686 15.1996 18.2957C15.0591 18.2202 14.9023 18.1813 14.7433 18.1827C14.3952 18.1827 14.1216 18.3374 13.9224 18.647C13.8959 18.6874 13.8514 18.7977 13.789 18.978C13.7424 19.1278 13.6709 19.2684 13.5777 19.3939C13.4994 19.4908 13.3845 19.5392 13.2331 19.5392C13.1719 19.5411 13.111 19.5302 13.0541 19.5073C12.9972 19.4844 12.9456 19.4499 12.9023 19.406C12.8147 19.3172 12.7708 19.1961 12.7708 19.0426C12.7738 18.8425 12.8158 18.6449 12.8944 18.4613C12.9796 18.255 13.105 18.0683 13.263 17.9122C13.4414 17.7383 13.6529 17.6029 13.8846 17.5145C14.1356 17.4136 14.4298 17.3631 14.7672 17.3631C15.1737 17.3631 15.5203 17.4277 15.8073 17.5569C15.9918 17.6421 16.1582 17.7627 16.2974 17.9122C16.5834 18.2206 16.7429 18.6276 16.7437 19.0507C16.7472 19.3714 16.6623 19.6867 16.4986 19.9611C16.3352 20.2344 16.1685 20.4483 15.9985 20.6031C15.8285 20.7579 15.5436 21.0008 15.1438 21.3318C14.7439 21.6629 14.4696 21.9199 14.3209 22.103C14.2497 22.1856 14.1844 22.2733 14.1257 22.3654Z" fill="#D5B690"/>
<path d="M14.1257 22.3654H16.2057C16.4129 22.3654 16.571 22.4084 16.6799 22.4946C16.7329 22.5356 16.7754 22.5889 16.8039 22.65C16.8323 22.7112 16.8458 22.7783 16.8433 22.8458C16.8447 22.9076 16.8339 22.969 16.8117 23.0265C16.7895 23.084 16.7562 23.1365 16.7138 23.1809C16.6274 23.2725 16.4966 23.3182 16.3213 23.3182H13.3885C13.1892 23.3182 13.0338 23.2623 12.9223 23.1506C12.8691 23.1002 12.8268 23.0393 12.798 22.9715C12.7692 22.9038 12.7545 22.8308 12.7549 22.757C12.7549 22.6601 12.7907 22.5316 12.8625 22.3714C12.9201 22.2335 12.9995 22.106 13.0976 21.9939C13.4508 21.6225 13.7696 21.3042 14.0539 21.0391C14.3382 20.774 14.5414 20.5998 14.6636 20.5163C14.8602 20.3786 15.0425 20.221 15.2076 20.0459C15.3424 19.9031 15.454 19.7396 15.5382 19.5614C15.6108 19.4097 15.6496 19.2436 15.6518 19.0749C15.6544 18.9124 15.6123 18.7524 15.5303 18.6127C15.4508 18.4783 15.3364 18.3686 15.1996 18.2957C15.0591 18.2202 14.9023 18.1813 14.7433 18.1827C14.3952 18.1827 14.1216 18.3374 13.9224 18.647C13.8959 18.6874 13.8514 18.7977 13.789 18.978C13.7424 19.1278 13.6709 19.2684 13.5777 19.3939C13.4994 19.4908 13.3845 19.5392 13.2331 19.5392C13.1719 19.5411 13.111 19.5302 13.0541 19.5073C12.9972 19.4844 12.9456 19.4499 12.9023 19.406C12.8147 19.3172 12.7708 19.1961 12.7708 19.0426C12.7738 18.8425 12.8158 18.6449 12.8944 18.4613C12.9796 18.255 13.105 18.0683 13.263 17.9122C13.4414 17.7383 13.6529 17.6029 13.8846 17.5145C14.1356 17.4136 14.4298 17.3631 14.7672 17.3631C15.1737 17.3631 15.5203 17.4277 15.8073 17.5569C15.9918 17.6421 16.1582 17.7627 16.2974 17.9122C16.5834 18.2206 16.7429 18.6276 16.7437 19.0507C16.7472 19.3714 16.6623 19.6867 16.4986 19.9611C16.3352 20.2344 16.1685 20.4483 15.9985 20.6031C15.8285 20.7579 15.5436 21.0008 15.1438 21.3318C14.7439 21.6629 14.4696 21.9199 14.3209 22.103C14.2497 22.1856 14.1844 22.2733 14.1257 22.3654Z" fill="#D9BA66" fill-opacity="0.2"/>
<path d="M20.0109 22.6919V21.9409H18.0105C17.7581 21.9409 17.5688 21.8831 17.4427 21.7673C17.3165 21.6516 17.2534 21.4942 17.2534 21.295C17.2538 21.2419 17.2632 21.1893 17.2813 21.1395C17.3028 21.0812 17.3309 21.0257 17.365 20.974C17.4022 20.9161 17.4407 20.8603 17.4806 20.8064C17.5204 20.7526 17.5695 20.6867 17.628 20.6086L19.7399 17.7461C19.8422 17.6003 19.9562 17.4632 20.0807 17.3363C20.1668 17.2527 20.2821 17.2069 20.4014 17.2092C20.8052 17.2092 21.0071 17.4433 21.0071 17.9117V21.0366H21.1785C21.383 21.0366 21.547 21.0648 21.6706 21.1214C21.7941 21.1779 21.8559 21.3017 21.8559 21.4928C21.8559 21.6489 21.8054 21.7626 21.7045 21.8339C21.6034 21.9053 21.452 21.941 21.2502 21.9409H21.0071V22.6919C21.0071 22.8992 20.9619 23.0533 20.8716 23.1542C20.8241 23.2025 20.7676 23.2408 20.7054 23.2668C20.6432 23.2927 20.5765 23.3059 20.5092 23.3056C20.4418 23.3052 20.3753 23.2912 20.3133 23.2646C20.2514 23.2379 20.1953 23.199 20.1484 23.1501C20.0568 23.0465 20.0109 22.8938 20.0109 22.6919ZM18.2974 21.0366H20.0109V18.6909L18.2974 21.0366Z" fill="#D5B690"/>
<path d="M20.0109 22.6919V21.9409H18.0105C17.7581 21.9409 17.5688 21.8831 17.4427 21.7673C17.3165 21.6516 17.2534 21.4942 17.2534 21.295C17.2538 21.2419 17.2632 21.1893 17.2813 21.1395C17.3028 21.0812 17.3309 21.0257 17.365 20.974C17.4022 20.9161 17.4407 20.8603 17.4806 20.8064C17.5204 20.7526 17.5695 20.6867 17.628 20.6086L19.7399 17.7461C19.8422 17.6003 19.9562 17.4632 20.0807 17.3363C20.1668 17.2527 20.2821 17.2069 20.4014 17.2092C20.8052 17.2092 21.0071 17.4433 21.0071 17.9117V21.0366H21.1785C21.383 21.0366 21.547 21.0648 21.6706 21.1214C21.7941 21.1779 21.8559 21.3017 21.8559 21.4928C21.8559 21.6489 21.8054 21.7626 21.7045 21.8339C21.6034 21.9053 21.452 21.941 21.2502 21.9409H21.0071V22.6919C21.0071 22.8992 20.9619 23.0533 20.8716 23.1542C20.8241 23.2025 20.7676 23.2408 20.7054 23.2668C20.6432 23.2927 20.5765 23.3059 20.5092 23.3056C20.4418 23.3052 20.3753 23.2912 20.3133 23.2646C20.2514 23.2379 20.1953 23.199 20.1484 23.1501C20.0568 23.0465 20.0109 22.8938 20.0109 22.6919ZM18.2974 21.0366H20.0109V18.6909L18.2974 21.0366Z" fill="#D9BA66" fill-opacity="0.2"/>
<path d="M24.1077 18.0045L22.992 22.6596C22.9547 22.813 22.9222 22.9341 22.8943 23.023C22.8719 23.103 22.8277 23.1751 22.7668 23.2309C22.7097 23.2806 22.6267 23.3055 22.5178 23.3056C22.2468 23.3056 22.1113 23.1871 22.1113 22.9503C22.1113 22.8884 22.1379 22.7336 22.191 22.486L23.3028 17.8309C23.3612 17.5833 23.417 17.4137 23.4702 17.3222C23.5233 17.2307 23.6269 17.185 23.781 17.1849C23.9138 17.1849 24.0154 17.2172 24.0858 17.2818C24.1215 17.3158 24.1494 17.3573 24.1676 17.4033C24.1858 17.4493 24.194 17.4988 24.1914 17.5483C24.1914 17.6318 24.1635 17.7838 24.1077 18.0045Z" fill="#D5B690"/>
<path d="M24.1077 18.0045L22.992 22.6596C22.9547 22.813 22.9222 22.9341 22.8943 23.023C22.8719 23.103 22.8277 23.1751 22.7668 23.2309C22.7097 23.2806 22.6267 23.3055 22.5178 23.3056C22.2468 23.3056 22.1113 23.1871 22.1113 22.9503C22.1113 22.8884 22.1379 22.7336 22.191 22.486L23.3028 17.8309C23.3612 17.5833 23.417 17.4137 23.4702 17.3222C23.5233 17.2307 23.6269 17.185 23.781 17.1849C23.9138 17.1849 24.0154 17.2172 24.0858 17.2818C24.1215 17.3158 24.1494 17.3573 24.1676 17.4033C24.1858 17.4493 24.194 17.4988 24.1914 17.5483C24.1914 17.6318 24.1635 17.7838 24.1077 18.0045Z" fill="#D9BA66" fill-opacity="0.2"/>
<path d="M25.5659 17.3426H28.2197C28.4748 17.3426 28.6594 17.383 28.7736 17.4637C28.8878 17.5445 28.9449 17.6777 28.945 17.8634C28.945 17.9765 28.8779 18.1258 28.7438 18.3116C28.6096 18.4973 28.4568 18.7025 28.2855 18.9273C28.0883 19.1926 27.9112 19.4727 27.7555 19.765C27.5501 20.1554 27.3827 20.5651 27.2554 20.9883C27.2015 21.1622 27.1562 21.3387 27.1199 21.5172C27.0934 21.6572 27.0641 21.8389 27.0323 22.0623C27.0004 22.2857 26.9725 22.4566 26.9486 22.575C26.8928 22.8495 26.8138 23.04 26.7115 23.1463C26.6092 23.2526 26.473 23.3057 26.303 23.3058C26.2294 23.3086 26.1561 23.2946 26.0885 23.2649C26.0209 23.2352 25.9608 23.1906 25.9125 23.1342C25.8142 23.0198 25.7651 22.8509 25.7651 22.6275C25.7651 22.4553 25.801 22.2211 25.8727 21.925C25.966 21.5628 26.0831 21.2074 26.2234 20.8611C26.5904 19.9372 27.087 19.0717 27.6977 18.2914H25.5659C25.3427 18.2914 25.176 18.2503 25.0657 18.1682C24.9555 18.0862 24.9004 17.9576 24.9004 17.7827C24.9004 17.5969 24.9588 17.4772 25.0757 17.4233C25.1926 17.3695 25.356 17.3426 25.5659 17.3426Z" fill="#D5B690"/>
<path d="M25.5659 17.3426H28.2197C28.4748 17.3426 28.6594 17.383 28.7736 17.4637C28.8878 17.5445 28.9449 17.6777 28.945 17.8634C28.945 17.9765 28.8779 18.1258 28.7438 18.3116C28.6096 18.4973 28.4568 18.7025 28.2855 18.9273C28.0883 19.1926 27.9112 19.4727 27.7555 19.765C27.5501 20.1554 27.3827 20.5651 27.2554 20.9883C27.2015 21.1622 27.1562 21.3387 27.1199 21.5172C27.0934 21.6572 27.0641 21.8389 27.0323 22.0623C27.0004 22.2857 26.9725 22.4566 26.9486 22.575C26.8928 22.8495 26.8138 23.04 26.7115 23.1463C26.6092 23.2526 26.473 23.3057 26.303 23.3058C26.2294 23.3086 26.1561 23.2946 26.0885 23.2649C26.0209 23.2352 25.9608 23.1906 25.9125 23.1342C25.8142 23.0198 25.7651 22.8509 25.7651 22.6275C25.7651 22.4553 25.801 22.2211 25.8727 21.925C25.966 21.5628 26.0831 21.2074 26.2234 20.8611C26.5904 19.9372 27.087 19.0717 27.6977 18.2914H25.5659C25.3427 18.2914 25.176 18.2503 25.0657 18.1682C24.9555 18.0862 24.9004 17.9576 24.9004 17.7827C24.9004 17.5969 24.9588 17.4772 25.0757 17.4233C25.1926 17.3695 25.356 17.3426 25.5659 17.3426Z" fill="#D9BA66" fill-opacity="0.2"/>
<path d="M2.63281 19.8448C2.63281 22.4585 3.56226 24.5773 4.70878 24.5773C5.17784 24.5773 5.61056 24.2227 5.95817 23.6246C6.46024 22.7608 5.67857 21.3892 5.67857 19.8448C5.67857 18.3046 6.46203 16.9363 5.96233 16.0721C5.61401 15.4697 5.17971 15.1122 4.70878 15.1122C3.56226 15.1122 2.63281 17.231 2.63281 19.8448Z" fill="url(#paint5_linear_1_10875)"/>
<defs>
<linearGradient id="paint0_linear_1_10875" x1="34.3685" y1="37.9999" x2="15.6127" y2="25.4129" gradientUnits="userSpaceOnUse">
<stop stop-color="#ECAF5A"/>
<stop offset="1" stop-color="#89683D"/>
</linearGradient>
<linearGradient id="paint1_linear_1_10875" x1="34.3685" y1="37.9999" x2="15.6127" y2="25.4129" gradientUnits="userSpaceOnUse">
<stop stop-color="#ECAF5A"/>
<stop offset="1" stop-color="#89683D"/>
</linearGradient>
<linearGradient id="paint2_linear_1_10875" x1="37.6326" y1="35.1646" x2="17.4037" y2="18.6374" gradientUnits="userSpaceOnUse">
<stop stop-color="#ECAF5A"/>
<stop offset="1" stop-color="#89683D"/>
</linearGradient>
<linearGradient id="paint3_linear_1_10875" x1="37.6326" y1="35.1646" x2="17.4037" y2="18.6374" gradientUnits="userSpaceOnUse">
<stop stop-color="#ECAF5A"/>
<stop offset="1" stop-color="#89683D"/>
</linearGradient>
<linearGradient id="paint4_linear_1_10875" x1="26.0772" y1="36.3535" x2="30.439" y2="33.5031" gradientUnits="userSpaceOnUse">
<stop stop-color="#967A53"/>
<stop offset="1" stop-color="#E9D39F"/>
</linearGradient>
<linearGradient id="paint5_linear_1_10875" x1="2.63281" y1="19.8447" x2="6.12896" y2="19.8447" gradientUnits="userSpaceOnUse">
<stop stop-color="#967A53"/>
<stop offset="1" stop-color="#E9D39F"/>
</linearGradient>
</defs>
</svg>
